<svg version="1.1" id="Layer_1" xmlns="http://www.w3.org/2000/svg" xmlns:xlink="http://www.w3.org/1999/xlink" x="0px" y="0px"
	 width="100%" viewBox="0 0 512 512" enable-background="new 0 0 512 512" xml:space="preserve">
<path fill="#FED44C" opacity="1.000000" stroke="none" 
	d="
M460.000000,513.000000 
	C340.977997,513.000000 221.955978,513.000000 102.705261,512.731812 
	C118.308846,508.322937 127.997765,495.791412 127.997856,479.428040 
	C127.998398,384.007477 127.995201,288.586914 128.243164,193.083389 
	C128.659698,192.945343 128.826355,192.890259 129.458313,192.897461 
	C161.575180,192.962830 193.226715,192.965927 225.052429,193.280090 
	C228.275360,199.650787 231.279373,205.733459 234.381866,211.765457 
	C241.755280,226.101212 238.637466,225.319504 257.462585,224.900970 
	C268.281555,224.929596 278.636200,224.896286 289.457703,224.912613 
	C300.286102,224.928909 310.647705,224.895569 321.474731,224.914337 
	C332.294220,224.923477 342.648285,224.880508 353.466766,224.902649 
	C364.286682,224.924622 374.642151,224.881500 385.462830,224.899460 
	C406.953033,224.920746 427.978088,224.880920 449.466797,224.911804 
	C457.592102,224.988297 465.253662,224.993256 472.915253,225.000137 
	C479.540405,225.006104 480.999023,226.462540 480.999146,233.100021 
	C481.000549,316.211823 480.909332,399.323822 481.105164,482.435150 
	C481.132233,493.926239 473.070618,507.120911 461.468964,511.060699 
	C460.833130,511.276672 460.483093,512.334229 460.000000,513.000000 
M192.910278,448.955597 
	C221.121262,448.970398 249.332230,448.987030 277.543213,448.998962 
	C286.781769,449.002869 287.935272,447.969971 288.954285,437.988220 
	C288.969574,391.682709 288.990112,345.377228 288.995087,299.071716 
	C288.995911,291.304474 286.674500,289.005310 278.860138,289.003235 
	C243.048157,288.993835 207.236191,288.995575 171.424210,289.001801 
	C163.244644,289.003204 161.002914,291.208862 161.001663,299.277924 
	C160.994705,344.084534 160.989334,388.891174 161.032196,433.697754 
	C161.033875,435.446960 161.531738,437.195709 161.905548,439.675781 
	C160.625381,445.477020 163.179199,448.885773 169.200851,448.964691 
	C176.790421,449.064209 184.383408,448.902618 192.910278,448.955597 
M352.500000,433.988251 
	C342.341492,433.988617 332.182922,433.978333 322.024445,433.993835 
	C316.777374,434.001831 313.021912,437.020966 313.069397,441.139282 
	C313.125641,446.017578 316.403412,448.978638 322.049988,448.984375 
	C353.358154,449.016235 384.666412,449.016571 415.974579,448.983887 
	C421.608643,448.978027 424.893555,445.990875 424.929352,441.114166 
	C424.959595,436.995300 421.211884,433.996521 415.949890,433.993713 
	C395.133270,433.982544 374.316620,433.988556 352.500000,433.988251 
M374.500000,401.988251 
	C356.847504,401.988800 339.195007,401.976776 321.542511,401.998077 
	C316.721619,402.003876 313.035614,405.152344 313.069275,409.121613 
	C313.109253,413.837830 316.301514,416.964508 321.532745,416.972992 
	C353.173950,417.024200 384.815308,417.023834 416.456512,416.973358 
	C421.692139,416.965027 424.880127,413.851593 424.929108,409.131805 
	C424.970337,405.161865 421.284576,402.006836 416.467133,401.998199 
	C402.811462,401.973663 389.155701,401.988708 374.500000,401.988251 
M317.520477,370.361969 
	C316.052734,372.806671 313.549927,375.168579 313.346375,377.714325 
	C312.992157,382.145203 316.375122,384.952362 321.119568,384.962372 
	C352.947876,385.029510 384.776337,384.997894 416.604767,384.996338 
	C417.104279,384.996338 417.610992,385.020905 418.102173,384.949921 
	C422.174561,384.361298 425.001099,381.049530 424.930786,376.975220 
	C424.867645,373.317230 421.392029,370.011353 417.302246,370.011353 
	C384.308777,370.011353 351.315308,370.061768 317.520477,370.361969 
M346.500000,337.988251 
	C338.339874,337.988647 330.179749,337.977142 322.019653,337.993652 
	C316.775177,338.004272 313.018646,341.025726 313.069458,345.144135 
	C313.129700,350.022888 316.405853,352.978699 322.054840,352.984406 
	C353.362976,353.016113 384.671265,353.016724 415.979401,352.983887 
	C421.611115,352.977966 424.897675,349.985443 424.929382,345.109344 
	C424.956146,340.990540 421.209656,337.996124 415.945068,337.993683 
	C393.130035,337.983093 370.315033,337.988556 346.500000,337.988251 
M358.500000,321.000000 
	C367.323700,320.998962 376.148895,321.094696 384.970520,320.958527 
	C389.822571,320.883667 392.890900,317.668365 392.929352,313.120605 
	C392.961548,309.313507 389.363708,306.011108 384.959045,306.004608 
	C363.649048,305.973145 342.338837,305.955627 321.029236,306.057281 
	C319.346222,306.065308 317.343506,306.609039 316.054688,307.622620 
	C313.385132,309.722107 312.412445,312.463135 313.793060,316.025757 
	C315.243927,319.769684 317.927155,320.986176 321.539307,320.991730 
	C333.526184,321.010101 345.513092,320.999512 358.500000,321.000000 
z"/>
<path fill="#EDF9FF" opacity="1.000000" stroke="none" 
	d="
M160.000000,1.000000 
	C255.354233,1.000000 350.708466,1.000000 446.229797,1.332952 
	C447.264771,4.008979 448.883606,6.349953 448.890167,8.695441 
	C449.034668,60.310665 449.010773,111.926392 448.993622,163.542023 
	C448.989136,177.025146 448.899353,190.508255 448.389832,204.003998 
	C426.990875,203.994293 406.050873,203.971954 385.035126,203.951965 
	C384.959381,203.954300 384.853210,204.062469 384.911865,203.592773 
	C384.979950,181.481552 385.011017,159.839981 384.985870,138.198486 
	C384.978271,131.645721 382.435730,129.081589 376.013611,129.012192 
	C371.019989,128.958237 366.022827,128.905533 361.031738,129.031265 
	C355.777985,129.163651 353.042725,131.845901 353.035950,137.147797 
	C353.007477,159.452698 353.099091,181.757782 353.092346,204.011871 
	C353.037872,203.960968 352.889740,203.944244 352.429260,203.972260 
	C341.686707,203.999054 331.404572,203.997849 321.048065,204.009003 
	C320.973663,204.021362 320.830200,204.067963 320.899231,203.599335 
	C320.979492,195.662933 321.059845,188.194397 320.978668,180.727615 
	C320.920410,175.370636 318.455933,172.584061 313.231110,172.342834 
	C307.766632,172.090561 302.273560,172.100754 296.807831,172.337997 
	C291.735687,172.558151 289.098450,175.254196 289.041138,180.181915 
	C288.948578,188.142471 289.113556,196.106003 289.096588,204.050369 
	C289.023407,204.032455 288.877625,203.994507 288.417389,204.004181 
	C277.677399,203.989166 267.397614,203.964493 257.045227,203.947769 
	C256.972595,203.955719 256.865692,204.055313 256.919922,203.585724 
	C256.982391,188.464615 257.034424,173.812958 256.976746,159.161713 
	C256.954285,153.454681 254.445801,150.935699 248.777191,150.821945 
	C243.451599,150.715073 238.119278,150.696548 232.795090,150.836151 
	C227.720871,150.969193 225.145096,153.551010 225.034546,158.584595 
	C224.935959,163.074249 225.098251,167.569626 225.093140,172.007874 
	C225.040878,171.953262 224.889725,171.949448 224.428680,171.976776 
	C208.313812,172.012390 192.660004,172.028854 177.006180,172.026245 
	C165.378601,172.024307 160.000259,166.597900 159.999573,154.874573 
	C159.996582,103.583046 159.999329,52.291523 160.000000,1.000000 
M341.282959,40.534370 
	C346.601196,41.164257 351.919434,41.794144 356.689880,42.359146 
	C331.636169,67.413879 306.349457,92.701637 280.616913,118.435265 
	C272.988098,110.768623 264.921570,102.624352 256.811096,94.524055 
	C250.933273,88.653595 247.670486,88.687767 241.721542,94.621674 
	C221.897797,114.395271 202.083374,134.178207 182.270706,153.962906 
	C181.210556,155.021561 180.047256,156.022278 179.194733,157.234711 
	C176.910950,160.482681 176.876709,163.904922 179.550903,166.854553 
	C182.165756,169.738739 185.544601,170.494843 189.027100,168.384048 
	C190.707306,167.365631 192.164474,165.922287 193.572571,164.520569 
	C210.699524,147.471344 227.796432,130.391968 244.908493,113.327805 
	C246.308960,111.931236 247.763046,110.588432 249.568832,108.860199 
	C257.636139,117.030663 265.449554,124.983246 273.308136,132.890884 
	C279.808075,139.431366 282.841858,139.390991 289.491394,132.744400 
	C314.480988,107.765831 339.460846,82.777496 364.452881,57.801388 
	C365.780396,56.474747 367.186218,55.226448 369.454651,53.098133 
	C369.454651,57.933598 369.334167,61.405975 369.482574,64.866829 
	C369.710999,70.194946 372.762238,73.642281 377.088837,73.729012 
	C381.692932,73.821289 384.944489,70.229950 384.984528,64.729942 
	C385.056091,54.897266 385.062805,45.063229 384.983154,35.230679 
	C384.934814,29.266939 382.043823,26.266039 376.104309,26.190628 
	C366.272705,26.065794 356.420441,25.827087 346.616394,26.361561 
	C343.779175,26.516233 340.201691,28.511402 338.529541,30.804665 
	C336.325745,33.827003 337.502899,37.519512 341.282959,40.534370 
M173.521271,43.974335 
	C166.735580,50.999817 164.771957,59.037357 168.293015,66.765656 
	C172.121277,75.168289 178.683411,79.468948 188.073257,79.201370 
	C190.228195,79.139961 192.456741,79.029335 194.535080,79.479004 
	C198.434311,80.322639 199.829666,84.233803 197.491837,87.121292 
	C194.962448,90.245399 184.872162,89.751068 182.687744,86.396034 
	C179.105270,80.893707 175.465332,79.519638 171.293976,82.094925 
	C167.194351,84.625923 166.021576,90.065002 169.762924,94.802383 
	C173.016312,98.921906 177.599991,101.990829 181.595795,105.524017 
	C182.010437,105.209656 182.425079,104.895287 182.839722,104.580925 
	C182.839722,106.059143 182.796677,107.538849 182.847458,109.015320 
	C183.030746,114.342949 185.993164,117.737839 190.431137,117.751434 
	C194.877411,117.765053 198.236816,114.325714 197.952469,109.056152 
	C197.741791,105.151955 199.451599,103.671913 202.666168,102.176140 
	C211.290680,98.163033 215.729919,88.762291 213.704788,79.806396 
	C211.642471,70.686089 203.813187,64.265617 194.354294,63.975346 
	C192.024719,63.903858 189.421341,64.576569 187.435364,63.740128 
	C185.364594,62.867962 183.887634,60.585926 182.151047,58.920288 
	C183.819275,57.344955 185.294907,54.767921 187.195755,54.402435 
	C191.175415,53.637241 195.321518,53.358803 197.607178,58.586937 
	C199.261948,62.372066 203.970093,63.291721 207.540436,61.286625 
	C211.169235,59.248692 213.043777,55.956348 211.070709,52.097385 
	C209.235336,48.507721 207.043137,44.377598 203.829803,42.395767 
	C199.680603,39.836731 197.570221,37.540607 197.848557,32.452801 
	C198.080444,28.213926 194.487228,25.614563 190.145569,25.806597 
	C185.857742,25.996252 182.792892,28.315296 183.061417,32.548645 
	C183.379898,37.569633 181.631134,40.267872 176.957275,41.563614 
	C175.896515,41.857689 175.022400,42.825005 173.521271,43.974335 
z"/>
<path fill="#000000" opacity="1.000000" stroke="none" 
	d="
M448.848755,203.991364 
	C448.899353,190.508255 448.989136,177.025146 448.993622,163.542023 
	C449.010773,111.926392 449.034668,60.310665 448.890167,8.695441 
	C448.883606,6.349953 447.264771,4.008979 446.698425,1.332952 
	C468.984741,1.000000 490.969482,1.000000 512.952393,1.000002 
	C512.950562,171.666672 512.950562,342.333344 512.950562,513.000000 
	C495.579895,513.000000 478.258606,513.000000 460.468689,513.000000 
	C460.483093,512.334229 460.833130,511.276672 461.468964,511.060699 
	C473.070618,507.120911 481.132233,493.926239 481.105164,482.435150 
	C480.909332,399.323822 481.000549,316.211823 480.999146,233.100021 
	C480.999023,226.462540 479.540405,225.006104 472.915253,225.000137 
	C465.253662,224.993256 457.592102,224.988297 449.464935,224.455872 
	C448.949158,217.283279 448.898956,210.637314 448.848755,203.991364 
z"/>
<path fill="#000000" opacity="1.000000" stroke="none" 
	d="
M54.000008,513.000000 
	C36.344460,513.000000 18.688919,513.000000 1.016689,513.000000 
	C1.016689,342.451935 1.016689,171.903885 1.016689,1.000000 
	C44.020241,1.000000 87.041458,1.000000 130.832184,1.332832 
	C130.734558,3.990130 129.213028,6.288515 129.119156,8.643800 
	C128.797272,16.720255 128.975937,24.816662 128.499512,32.949196 
	C117.697479,33.050262 107.359673,33.107601 96.557182,33.089962 
	C88.430771,33.009995 80.769043,33.000881 73.107323,33.001266 
	C66.464706,33.001598 65.011345,34.456676 64.999275,41.066730 
	C64.945747,70.377213 64.889572,99.687691 64.376076,128.998978 
	C56.588787,128.999863 49.259766,128.999313 41.930748,129.000168 
	C34.028732,129.001083 33.000332,130.012634 33.000305,137.796082 
	C32.999870,252.562164 33.074734,367.328369 32.886486,482.094147 
	C32.867279,493.804901 40.730011,506.915955 52.445099,511.055054 
	C53.109520,511.289795 53.488300,512.333008 54.000008,513.000000 
z"/>
<path fill="#E68415" opacity="1.000000" stroke="none" 
	d="
M54.466869,513.000000 
	C53.488300,512.333008 53.109520,511.289795 52.445099,511.055054 
	C40.730011,506.915955 32.867279,493.804901 32.886486,482.094147 
	C33.074734,367.328369 32.999870,252.562164 33.000305,137.796082 
	C33.000332,130.012634 34.028732,129.001083 41.930748,129.000168 
	C49.259766,128.999313 56.588787,128.999863 64.444511,129.462219 
	C64.980812,163.077652 64.996651,196.230637 64.998703,229.383621 
	C65.003029,299.354980 64.995850,369.326355 65.006645,439.297729 
	C65.007759,446.531799 67.394867,448.967773 74.478958,448.990234 
	C81.975349,449.014008 89.471985,448.962036 96.978729,449.415222 
	C96.992332,460.162811 97.203575,470.443604 96.940552,480.712250 
	C96.678688,490.936066 93.139839,499.956970 84.466400,505.900665 
	C80.081665,508.905396 74.849190,510.673035 70.000008,513.000000 
	C64.977905,513.000000 59.955814,513.000000 54.466869,513.000000 
z"/>
<path fill="#F2B84C" opacity="1.000000" stroke="none" 
	d="
M70.468666,513.000000 
	C74.849190,510.673035 80.081665,508.905396 84.466400,505.900665 
	C93.139839,499.956970 96.678688,490.936066 96.940552,480.712250 
	C97.203575,470.443604 96.992332,460.162811 96.991287,448.950287 
	C96.995766,366.795563 96.991768,285.577911 97.029205,204.360275 
	C97.030342,201.892395 97.463509,199.424698 97.916199,196.660217 
	C100.431328,195.243622 102.684967,193.271851 105.027161,193.160355 
	C112.665123,192.796768 120.335419,193.112183 127.993271,193.166367 
	C127.995201,288.586914 127.998398,384.007477 127.997856,479.428040 
	C127.997765,495.791412 118.308846,508.322937 102.238281,512.731812 
	C91.645775,513.000000 81.291542,513.000000 70.468666,513.000000 
z"/>
<path fill="#C0E1F0" opacity="1.000000" stroke="none" 
	d="
M128.963745,32.905460 
	C128.975937,24.816662 128.797272,16.720255 129.119156,8.643800 
	C129.213028,6.288515 130.734558,3.990130 131.300842,1.332832 
	C140.354233,1.000000 149.708450,1.000000 159.531342,1.000000 
	C159.999329,52.291523 159.996582,103.583046 159.999573,154.874573 
	C160.000259,166.597900 165.378601,172.024307 177.006180,172.026245 
	C192.660004,172.028854 208.313812,172.012390 224.482162,172.445938 
	C224.957199,179.581512 224.917725,186.275284 224.878250,192.969040 
	C193.226715,192.965927 161.575180,192.962830 129.460449,192.441040 
	C128.986084,138.916702 128.974915,85.911087 128.963745,32.905460 
z"/>
<path fill="#EDF9FF" opacity="1.000000" stroke="none" 
	d="
M161.798416,438.944672 
	C161.531738,437.195709 161.033875,435.446960 161.032196,433.697754 
	C160.989334,388.891174 160.994705,344.084534 161.001663,299.277924 
	C161.002914,291.208862 163.244644,289.003204 171.424210,289.001801 
	C207.236191,288.995575 243.048157,288.993835 278.860138,289.003235 
	C286.674500,289.005310 288.995911,291.304474 288.995087,299.071716 
	C288.990112,345.377228 288.969574,391.682709 288.605316,438.248962 
	C287.836304,436.739105 287.423615,434.966736 286.995117,433.198181 
	C281.271362,409.575348 260.026947,389.613251 236.595947,386.107208 
	C234.167053,385.657166 232.120331,385.297333 230.333603,384.689941 
	C233.727737,383.294250 236.861877,382.146088 240.315674,380.877441 
	C251.707291,374.326202 257.334412,364.490082 256.843658,351.912323 
	C256.381927,340.077393 251.059570,330.561279 239.763702,324.728638 
	C238.604828,324.077515 237.690552,323.681732 236.766312,323.310822 
	C224.851227,318.529175 211.116867,321.365814 202.191406,330.448151 
	C193.156265,339.642090 190.597412,353.120636 195.435944,365.097626 
	C199.951965,376.276398 208.792816,381.988403 219.524734,384.996704 
	C217.989258,385.290192 216.858459,385.566589 215.713165,385.755005 
	C187.261597,390.435120 166.718979,410.696930 161.798416,438.944672 
z"/>
<path fill="#EDF9FF" opacity="1.000000" stroke="none" 
	d="
M128.499512,32.949196 
	C128.974915,85.911087 128.986084,138.916702 128.995132,192.378754 
	C128.826355,192.890259 128.659698,192.945343 128.243164,193.083389 
	C120.335419,193.112183 112.665123,192.796768 105.027161,193.160355 
	C102.684967,193.271851 100.431328,195.243622 97.696327,196.318558 
	C97.170341,195.119034 97.010796,193.964462 97.010689,192.809906 
	C97.005676,139.594925 97.014587,86.379929 97.021873,33.164940 
	C107.359673,33.107601 117.697479,33.050262 128.499512,32.949196 
z"/>
<path fill="#F25E6C" opacity="1.000000" stroke="none" 
	d="
M236.978104,386.197388 
	C260.026947,389.613251 281.271362,409.575348 286.995117,433.198181 
	C287.423615,434.966736 287.836304,436.739105 288.563965,438.710358 
	C287.935272,447.969971 286.781769,449.002869 277.543213,448.998962 
	C249.332230,448.987030 221.121262,448.970398 192.451569,448.469482 
	C192.584900,443.415833 192.753220,438.744659 193.840897,434.298370 
	C199.084549,412.862946 212.019760,397.978516 232.498138,389.619446 
	C234.177307,388.934052 235.493347,387.359039 236.978104,386.197388 
z"/>
<path fill="#E8485F" opacity="1.000000" stroke="none" 
	d="
M236.595947,386.107208 
	C235.493347,387.359039 234.177307,388.934052 232.498138,389.619446 
	C212.019760,397.978516 199.084549,412.862946 193.840897,434.298370 
	C192.753220,438.744659 192.584900,443.415833 191.983902,448.418518 
	C184.383408,448.902618 176.790421,449.064209 169.200851,448.964691 
	C163.179199,448.885773 160.625381,445.477020 161.851990,439.310242 
	C166.718979,410.696930 187.261597,390.435120 215.713165,385.755005 
	C216.858459,385.566589 217.989258,385.290192 219.982788,385.065308 
	C223.917038,385.029694 226.995316,384.983582 230.073608,384.937469 
	C232.120331,385.297333 234.167053,385.657166 236.595947,386.107208 
z"/>
<path fill="#F2B84C" opacity="1.000000" stroke="none" 
	d="
M353.000000,433.988220 
	C374.316620,433.988556 395.133270,433.982544 415.949890,433.993713 
	C421.211884,433.996521 424.959595,436.995300 424.929352,441.114166 
	C424.893555,445.990875 421.608643,448.978027 415.974579,448.983887 
	C384.666412,449.016571 353.358154,449.016235 322.049988,448.984375 
	C316.403412,448.978638 313.125641,446.017578 313.069397,441.139282 
	C313.021912,437.020966 316.777374,434.001831 322.024445,433.993835 
	C332.182922,433.978333 342.341492,433.988617 353.000000,433.988220 
z"/>
<path fill="#F2B84C" opacity="1.000000" stroke="none" 
	d="
M375.000000,401.988220 
	C389.155701,401.988708 402.811462,401.973663 416.467133,401.998199 
	C421.284576,402.006836 424.970337,405.161865 424.929108,409.131805 
	C424.880127,413.851593 421.692139,416.965027 416.456512,416.973358 
	C384.815308,417.023834 353.173950,417.024200 321.532745,416.972992 
	C316.301514,416.964508 313.109253,413.837830 313.069275,409.121613 
	C313.035614,405.152344 316.721619,402.003876 321.542511,401.998077 
	C339.195007,401.976776 356.847504,401.988800 375.000000,401.988220 
z"/>
<path fill="#F2B84C" opacity="1.000000" stroke="none" 
	d="
M317.921143,370.229370 
	C351.315308,370.061768 384.308777,370.011353 417.302246,370.011353 
	C421.392029,370.011353 424.867645,373.317230 424.930786,376.975220 
	C425.001099,381.049530 422.174561,384.361298 418.102173,384.949921 
	C417.610992,385.020905 417.104279,384.996338 416.604767,384.996338 
	C384.776337,384.997894 352.947876,385.029510 321.119568,384.962372 
	C316.375122,384.952362 312.992157,382.145203 313.346375,377.714325 
	C313.549927,375.168579 316.052734,372.806671 317.921143,370.229370 
z"/>
<path fill="#F2B84C" opacity="1.000000" stroke="none" 
	d="
M347.000000,337.988220 
	C370.315033,337.988556 393.130035,337.983093 415.945068,337.993683 
	C421.209656,337.996124 424.956146,340.990540 424.929382,345.109344 
	C424.897675,349.985443 421.611115,352.977966 415.979401,352.983887 
	C384.671265,353.016724 353.362976,353.016113 322.054840,352.984406 
	C316.405853,352.978699 313.129700,350.022888 313.069458,345.144135 
	C313.018646,341.025726 316.775177,338.004272 322.019653,337.993652 
	C330.179749,337.977142 338.339874,337.988647 347.000000,337.988220 
z"/>
<path fill="#C1E1F0" opacity="1.000000" stroke="none" 
	d="
M448.389832,204.003998 
	C448.898956,210.637314 448.949158,217.283279 449.001221,224.385162 
	C427.978088,224.880920 406.953033,224.920746 385.464294,224.443268 
	C385.037354,217.267197 385.074097,210.608398 385.110840,203.949615 
	C406.050873,203.971954 426.990875,203.994293 448.389832,204.003998 
z"/>
<path fill="#F2B84C" opacity="1.000000" stroke="none" 
	d="
M358.000000,321.000000 
	C345.513092,320.999512 333.526184,321.010101 321.539307,320.991730 
	C317.927155,320.986176 315.243927,319.769684 313.793060,316.025757 
	C312.412445,312.463135 313.385132,309.722107 316.054688,307.622620 
	C317.343506,306.609039 319.346222,306.065308 321.029236,306.057281 
	C342.338837,305.955627 363.649048,305.973145 384.959045,306.004608 
	C389.363708,306.011108 392.961548,309.313507 392.929352,313.120605 
	C392.890900,317.668365 389.822571,320.883667 384.970520,320.958527 
	C376.148895,321.094696 367.323700,320.998962 358.000000,321.000000 
z"/>
<path fill="#39938B" opacity="1.000000" stroke="none" 
	d="
M225.052429,193.280090 
	C224.917725,186.275284 224.957199,179.581512 224.943207,172.418610 
	C224.889725,171.949448 225.040878,171.953262 225.531189,171.990204 
	C234.150848,170.935211 239.526459,173.972504 242.579636,181.891464 
	C244.887680,187.877808 247.998154,193.598862 251.223953,199.164139 
	C252.404251,201.200424 254.945374,202.447952 256.865692,204.055313 
	C256.865692,204.055313 256.972595,203.955719 256.992645,204.417725 
	C257.007904,211.532852 257.003113,218.185944 256.998322,224.839050 
	C238.637466,225.319504 241.755280,226.101212 234.381866,211.765457 
	C231.279373,205.733459 228.275360,199.650787 225.052429,193.280090 
z"/>
<path fill="#38938B" opacity="1.000000" stroke="none" 
	d="
M385.035095,203.951965 
	C385.074097,210.608398 385.037354,217.267197 384.999146,224.382172 
	C374.642151,224.881500 364.286682,224.924622 353.465271,224.446503 
	C352.962860,217.264923 352.926300,210.604584 352.889740,203.944244 
	C352.889740,203.944244 353.037872,203.960968 353.550720,203.993774 
	C364.326813,204.038559 374.589996,204.050507 384.853210,204.062469 
	C384.853210,204.062469 384.959381,203.954300 385.035095,203.951965 
z"/>
<path fill="#C1E1F0" opacity="1.000000" stroke="none" 
	d="
M352.429260,203.972260 
	C352.926300,210.604584 352.962860,217.264923 353.000854,224.381409 
	C342.648285,224.880508 332.294220,224.923477 321.471985,224.458405 
	C321.043365,217.299118 321.082916,210.647873 321.122467,203.996628 
	C331.404572,203.997849 341.686707,203.999054 352.429260,203.972260 
z"/>
<path fill="#E8465E" opacity="1.000000" stroke="none" 
	d="
M321.048065,204.009003 
	C321.082916,210.647873 321.043365,217.299118 321.006561,224.406296 
	C310.647705,224.895569 300.286102,224.928909 289.460358,224.456573 
	C288.956665,217.298767 288.917145,210.646637 288.877625,203.994507 
	C288.877625,203.994507 289.023407,204.032455 289.553406,204.032333 
	C300.332336,204.044128 310.581268,204.056046 320.830200,204.067963 
	C320.830200,204.067963 320.973663,204.021362 321.048065,204.009003 
z"/>
<path fill="#C1E1F0" opacity="1.000000" stroke="none" 
	d="
M288.417389,204.004181 
	C288.917145,210.646637 288.956665,217.298767 288.993530,224.406937 
	C278.636200,224.896286 268.281555,224.929596 257.462585,224.900970 
	C257.003113,218.185944 257.007904,211.532852 257.065277,204.409790 
	C267.397614,203.964493 277.677399,203.989166 288.417389,204.004181 
z"/>
<path fill="#64707B" opacity="1.000000" stroke="none" 
	d="
M340.969238,40.302998 
	C337.502899,37.519512 336.325745,33.827003 338.529541,30.804665 
	C340.201691,28.511402 343.779175,26.516233 346.616394,26.361561 
	C356.420441,25.827087 366.272705,26.065794 376.104309,26.190628 
	C382.043823,26.266039 384.934814,29.266939 384.983154,35.230679 
	C385.062805,45.063229 385.056091,54.897266 384.984528,64.729942 
	C384.944489,70.229950 381.692932,73.821289 377.088837,73.729012 
	C372.762238,73.642281 369.710999,70.194946 369.482574,64.866829 
	C369.334167,61.405975 369.454651,57.933598 369.454651,53.098133 
	C367.186218,55.226448 365.780396,56.474747 364.452881,57.801388 
	C339.460846,82.777496 314.480988,107.765831 289.491394,132.744400 
	C282.841858,139.390991 279.808075,139.431366 273.308136,132.890884 
	C265.449554,124.983246 257.636139,117.030663 249.568832,108.860199 
	C247.763046,110.588432 246.308960,111.931236 244.908493,113.327805 
	C227.796432,130.391968 210.699524,147.471344 193.572571,164.520569 
	C192.164474,165.922287 190.707306,167.365631 189.027100,168.384048 
	C185.544601,170.494843 182.165756,169.738739 179.550903,166.854553 
	C176.876709,163.904922 176.910950,160.482681 179.194733,157.234711 
	C180.047256,156.022278 181.210556,155.021561 182.270706,153.962906 
	C202.083374,134.178207 221.897797,114.395271 241.721542,94.621674 
	C247.670486,88.687767 250.933273,88.653595 256.811096,94.524055 
	C264.921570,102.624352 272.988098,110.768623 280.616913,118.435265 
	C306.349457,92.701637 331.636169,67.413879 356.689880,42.359146 
	C351.919434,41.794144 346.601196,41.164257 340.969238,40.302998 
z"/>
<path fill="#FED44E" opacity="1.000000" stroke="none" 
	d="
M173.791840,43.728386 
	C175.022400,42.825005 175.896515,41.857689 176.957275,41.563614 
	C181.631134,40.267872 183.379898,37.569633 183.061417,32.548645 
	C182.792892,28.315296 185.857742,25.996252 190.145569,25.806597 
	C194.487228,25.614563 198.080444,28.213926 197.848557,32.452801 
	C197.570221,37.540607 199.680603,39.836731 203.829803,42.395767 
	C207.043137,44.377598 209.235336,48.507721 211.070709,52.097385 
	C213.043777,55.956348 211.169235,59.248692 207.540436,61.286625 
	C203.970093,63.291721 199.261948,62.372066 197.607178,58.586937 
	C195.321518,53.358803 191.175415,53.637241 187.195755,54.402435 
	C185.294907,54.767921 183.819275,57.344955 182.151047,58.920288 
	C183.887634,60.585926 185.364594,62.867962 187.435364,63.740128 
	C189.421341,64.576569 192.024719,63.903858 194.354294,63.975346 
	C203.813187,64.265617 211.642471,70.686089 213.704788,79.806396 
	C215.729919,88.762291 211.290680,98.163033 202.666168,102.176140 
	C199.451599,103.671913 197.741791,105.151955 197.952469,109.056152 
	C198.236816,114.325714 194.877411,117.765053 190.431137,117.751434 
	C185.993164,117.737839 183.030746,114.342949 182.847458,109.015320 
	C182.796677,107.538849 182.839722,106.059143 182.839722,104.580925 
	C182.425079,104.895287 182.010437,105.209656 181.595795,105.524017 
	C177.599991,101.990829 173.016312,98.921906 169.762924,94.802383 
	C166.021576,90.065002 167.194351,84.625923 171.293976,82.094925 
	C175.465332,79.519638 179.105270,80.893707 182.687744,86.396034 
	C184.872162,89.751068 194.962448,90.245399 197.491837,87.121292 
	C199.829666,84.233803 198.434311,80.322639 194.535080,79.479004 
	C192.456741,79.029335 190.228195,79.139961 188.073257,79.201370 
	C178.683411,79.468948 172.121277,75.168289 168.293015,66.765656 
	C164.771957,59.037357 166.735580,50.999817 173.791840,43.728386 
z"/>
<path fill="#3DA894" opacity="1.000000" stroke="none" 
	d="
M384.911865,203.592773 
	C374.589996,204.050507 364.326813,204.038559 353.605194,204.044693 
	C353.099091,181.757782 353.007477,159.452698 353.035950,137.147797 
	C353.042725,131.845901 355.777985,129.163651 361.031738,129.031265 
	C366.022827,128.905533 371.019989,128.958237 376.013611,129.012192 
	C382.435730,129.081589 384.978271,131.645721 384.985870,138.198486 
	C385.011017,159.839981 384.979950,181.481552 384.911865,203.592773 
z"/>
<path fill="#3DA894" opacity="1.000000" stroke="none" 
	d="
M256.919922,203.585724 
	C254.945374,202.447952 252.404251,201.200424 251.223953,199.164139 
	C247.998154,193.598862 244.887680,187.877808 242.579636,181.891464 
	C239.526459,173.972504 234.150848,170.935211 225.583450,172.044830 
	C225.098251,167.569626 224.935959,163.074249 225.034546,158.584595 
	C225.145096,153.551010 227.720871,150.969193 232.795090,150.836151 
	C238.119278,150.696548 243.451599,150.715073 248.777191,150.821945 
	C254.445801,150.935699 256.954285,153.454681 256.976746,159.161713 
	C257.034424,173.812958 256.982391,188.464615 256.919922,203.585724 
z"/>
<path fill="#F2606E" opacity="1.000000" stroke="none" 
	d="
M320.899231,203.599335 
	C310.581268,204.056046 300.332336,204.044128 289.626587,204.050247 
	C289.113556,196.106003 288.948578,188.142471 289.041138,180.181915 
	C289.098450,175.254196 291.735687,172.558151 296.807831,172.337997 
	C302.273560,172.100754 307.766632,172.090561 313.231110,172.342834 
	C318.455933,172.584061 320.920410,175.370636 320.978668,180.727615 
	C321.059845,188.194397 320.979492,195.662933 320.899231,203.599335 
z"/>
<path fill="#C0E1F0" opacity="1.000000" stroke="none" 
	d="
M96.557182,33.089962 
	C97.014587,86.379929 97.005676,139.594925 97.010689,192.809906 
	C97.010796,193.964462 97.170341,195.119034 97.475388,196.615265 
	C97.463509,199.424698 97.030342,201.892395 97.029205,204.360275 
	C96.991768,285.577911 96.995766,366.795563 96.981079,448.478149 
	C89.471985,448.962036 81.975349,449.014008 74.478958,448.990234 
	C67.394867,448.967773 65.007759,446.531799 65.006645,439.297729 
	C64.995850,369.326355 65.003029,299.354980 64.998703,229.383621 
	C64.996651,196.230637 64.980812,163.077652 64.902786,129.461426 
	C64.889572,99.687691 64.945747,70.377213 64.999275,41.066730 
	C65.011345,34.456676 66.464706,33.001598 73.107323,33.001266 
	C80.769043,33.000881 88.430771,33.009995 96.557182,33.089962 
z"/>
<path fill="#FFB19F" opacity="1.000000" stroke="none" 
	d="
M230.333603,384.689941 
	C226.995316,384.983582 223.917038,385.029694 220.380707,385.007172 
	C208.792816,381.988403 199.951965,376.276398 195.435944,365.097626 
	C190.597412,353.120636 193.156265,339.642090 202.191406,330.448151 
	C211.116867,321.365814 224.851227,318.529175 236.766312,323.310822 
	C237.690552,323.681732 238.604828,324.077515 239.565674,324.996216 
	C228.716675,332.370789 223.389359,342.247406 224.052460,355.065521 
	C224.643875,366.497925 230.624207,374.846954 239.996033,380.997955 
	C236.861877,382.146088 233.727737,383.294250 230.333603,384.689941 
z"/>
<path fill="#FFCEBF" opacity="1.000000" stroke="none" 
	d="
M240.315674,380.877441 
	C230.624207,374.846954 224.643875,366.497925 224.052460,355.065521 
	C223.389359,342.247406 228.716675,332.370789 239.805664,325.263123 
	C251.059570,330.561279 256.381927,340.077393 256.843658,351.912323 
	C257.334412,364.490082 251.707291,374.326202 240.315674,380.877441 
z"/>
</svg>